<?xml version="1.0" encoding="UTF-8" standalone="no"?>
<!-- Created with Inkscape (http://www.inkscape.org/) -->

<svg
   width="113.43791mm"
   height="33.965656mm"
   viewBox="0 0 113.43791 33.965656"
   version="1.1"
   id="svg5"
   inkscape:version="1.2 (dc2aedaf03, 2022-05-15)"
   sodipodi:docname="g5151.svg"
   xmlns:inkscape="http://www.inkscape.org/namespaces/inkscape"
   xmlns:sodipodi="http://sodipodi.sourceforge.net/DTD/sodipodi-0.dtd"
   xmlns="http://www.w3.org/2000/svg"
   xmlns:svg="http://www.w3.org/2000/svg">
  <sodipodi:namedview
     id="namedview7"
     pagecolor="#ffffff"
     bordercolor="#000000"
     borderopacity="0.25"
     inkscape:showpageshadow="2"
     inkscape:pageopacity="0.0"
     inkscape:pagecheckerboard="0"
     inkscape:deskcolor="#d1d1d1"
     inkscape:document-units="mm"
     showgrid="false"
     inkscape:zoom="1.829812"
     inkscape:cx="225.15974"
     inkscape:cy="140.72484"
     inkscape:window-width="1981"
     inkscape:window-height="1230"
     inkscape:window-x="1000"
     inkscape:window-y="312"
     inkscape:window-maximized="0"
     inkscape:current-layer="text63" />
  <defs
     id="defs2" />
  <g
     inkscape:label="Layer 1"
     inkscape:groupmode="layer"
     id="layer1"
     transform="translate(-30.929588,-29.307106)">
    <g
       aria-label="MATSUNOKI"
       id="text63"
       style="font-size:22.5778px;stroke-width:0.264583">
      <g
         id="g5151"
         transform="translate(-4.4824732,36.148978)">
        <g
           id="g205"
           inkscape:export-filename="\\wsl$\Distrod\home\himanoa\src\github.com\himanoa\matsunoki\web\ui\src\assets\logo.svg"
           inkscape:export-xdpi="96"
           inkscape:export-ydpi="96">
          <path
             d="m 42.478912,15.834881 h -0.04516 l -0.857957,6.77334 h -2.25778 l -0.857951,-6.77334 h -0.04516 v 11.2889 H 35.412061 V 10.641982 h 3.770492 l 1.332091,9.031119 h 0.04516 l 1.332091,-9.031119 h 3.680181 v 16.481799 h -3.093159 z"
             style="font-weight:bold;font-family:'M+ 1m';-inkscape-font-specification:'M+ 1m Bold';fill:#502d16"
             id="path115" />
          <path
             d="m 82.607953,13.915771 q -1.896535,-1.08373 -3.725337,-1.08373 -0.92569,0 -1.467557,0.47413 -0.541867,0.47413 -0.541867,1.28693 0,1.60303 1.557868,2.25778 2.619025,1.08374 3.612448,2.32552 1.016001,1.24178 1.016001,3.20605 0,4.74133 -5.080005,4.74133 -2.25778,0 -4.064004,-1.12889 v -3.048 q 1.873957,1.53529 3.90596,1.53529 2.122313,0 2.122313,-1.98685 0,-1.71591 -1.738491,-2.48355 -2.438402,-1.03858 -3.431826,-2.23521 -0.970845,-1.2192 -0.970845,-3.07058 0,-2.032 1.286935,-3.27378 1.286934,-1.241777 3.454403,-1.241777 2.302936,0 4.064004,0.790227 z"
             style="font-weight:bold;font-family:'M+ 1m';-inkscape-font-specification:'M+ 1m Bold';fill:#502d16"
             id="path121" />
          <path
             d="m 94.975828,25.904581 q -1.10631,1.2192 -3.635029,1.2192 -2.528713,0 -3.635026,-1.2192 -1.106312,-1.2192 -1.106312,-4.19947 V 10.416212 h 3.206048 v 10.385789 q 0,2.28036 0.316089,2.98027 0.338667,0.67733 1.264357,0.67733 0.92569,0 1.241779,-0.67733 0.338667,-0.69991 0.338667,-2.98027 V 10.416212 h 3.115737 v 11.288899 q 0,2.98027 -1.10631,4.19947 z"
             style="font-weight:bold;font-family:'M+ 1m';-inkscape-font-specification:'M+ 1m Bold';fill:#502d16"
             id="path123" />
          <path
             d="m 102.60231,16.737991 h -0.0451 v 10.38579 h -3.1609 V 10.641982 h 3.31894 l 2.82223,10.385789 h 0.0452 V 10.641982 h 3.07058 v 16.481799 h -3.22862 z"
             style="font-weight:bold;font-family:'M+ 1m';-inkscape-font-specification:'M+ 1m Bold';fill:#502d16"
             id="path125" />
          <path
             d="m 113.41237,12.086971 q 1.24177,-1.896537 3.97369,-1.896537 2.73191,0 3.95111,1.896537 1.24178,1.89653 1.24178,6.57014 0,4.6736 -1.24178,6.57014 -1.2192,1.89653 -3.95111,1.89653 -2.73192,0 -3.97369,-1.89653 -1.21921,-1.89654 -1.21921,-6.57014 0,-4.67361 1.21921,-6.57014 z m 2.28035,11.17601 q 0.51929,1.19662 1.69334,1.19662 1.17404,0 1.69333,-1.19662 0.51929,-1.2192 0.51929,-4.60587 0,-3.38667 -0.51929,-4.58329 -0.51929,-1.21921 -1.69333,-1.21921 -1.17405,0 -1.69334,1.21921 -0.51929,1.19662 -0.51929,4.58329 0,3.38667 0.51929,4.60587 z"
             style="font-weight:bold;font-family:'M+ 1m';-inkscape-font-specification:'M+ 1m Bold';fill:#502d16"
             id="path127" />
          <path
             d="m 128.1961,19.673101 h -0.0452 v 7.45068 h -3.16089 V 10.641982 h 3.16089 v 6.773339 h 0.0452 l 3.048,-6.773339 h 3.34152 l -3.61245,7.789339 3.72533,8.69246 h -3.38667 z"
             style="font-weight:bold;font-family:'M+ 1m';-inkscape-font-specification:'M+ 1m Bold';fill:#502d16"
             id="path129" />
          <g
             id="g5125"
             transform="translate(-0.03288825,-33.965653)">
            <path
               d="m 68.294878,47.204084 v 13.88535 h -3.160892 v -13.88535 h -3.273782 v -2.59645 h 9.708455 v 2.59645 z"
               style="font-weight:bold;font-family:'M+ 1m';-inkscape-font-specification:'M+ 1m Bold';fill:#502d16"
               id="path119" />
            <path
               d="m 66.547632,29.60734 h -0.04516 l -1.241779,7.563554 h 2.528714 z m 1.670758,10.160004 h -3.38667 l -0.632179,3.83823 h -3.160892 l 3.725337,-16.481793 h 3.612448 l 3.725337,16.481793 h -3.251203 z"
               style="font-weight:bold;font-family:'M+ 1m';-inkscape-font-specification:'M+ 1m Bold';fill:#142d14;fill-opacity:1"
               id="path117" />
            <rect
               style="fill:#502d16;stroke-width:0.050131"
               id="rect344"
               width="2.0448952"
               height="12.371614"
               x="65.601143"
               y="39.732407" />
            <rect
               style="fill:#142d14;fill-opacity:1;stroke-width:0.0619293"
               id="rect4224"
               width="3.253408"
               height="9.5433311"
               x="64.902367"
               y="29.092543" />
          </g>
          <g
             id="g5131"
             transform="translate(0,-33.965653)">
            <path
               d="m 147.44712,61.089434 h -8.12801 v -2.59645 h 2.4384 v -11.2889 h -2.4384 v -2.596449 h 8.12801 v 2.596449 h -2.43841 v 11.2889 h 2.43841 z"
               style="font-weight:bold;font-family:'M+ 1m';-inkscape-font-specification:'M+ 1m Bold';fill:#502d16"
               id="path131" />
            <path
               d="m 143.29584,29.678133 h -0.0452 l -1.24178,7.563554 h 2.52871 z m 1.67076,10.160004 h -3.38667 l -0.63218,3.83823 h -3.16089 l 3.72533,-16.481793 h 3.61245 l 3.72534,16.481793 h -3.25121 z"
               style="font-weight:bold;font-family:'M+ 1m';-inkscape-font-specification:'M+ 1m Bold';fill:#142d14;fill-opacity:1"
               id="path5001" />
            <rect
               style="fill:#502d16;stroke-width:0.050131"
               id="rect5003"
               width="2.0448952"
               height="12.371614"
               x="142.34935"
               y="39.8032" />
            <rect
               style="fill:#142d14;fill-opacity:1;stroke-width:0.0619293"
               id="rect5005"
               width="3.253408"
               height="9.5433311"
               x="141.65057"
               y="29.163336" />
          </g>
          <g
             aria-label="A"
             id="text5069"
             style="font-weight:bold;font-size:22.5778px;font-family:'M+ 1m';-inkscape-font-specification:'M+ 1m Bold';fill:#502d16;stroke-width:0.0700042">
            <path
               d="m 53.717896,13.125545 h -0.04516 l -1.241779,7.563563 h 2.528714 z m 1.670757,10.16001 h -3.38667 l -0.632178,3.838226 H 48.208913 L 51.93425,10.641987 h 3.612448 l 3.725337,16.481794 h -3.251203 z"
               id="path184" />
          </g>
        </g>
      </g>
    </g>
  </g>
</svg>
